<mxfile host="Electron" modified="2025-01-25T16:21:25.406Z" agent="Mozilla/5.0 (Windows NT 10.0; Win64; x64) AppleWebKit/537.36 (KHTML, like Gecko) draw.io/24.4.6 Chrome/124.0.6367.207 Electron/30.0.6 Safari/537.36" etag="pAGzW1uFvjeuBy1UBXcG" version="24.4.6" type="device">
  <diagram id="dpH4ohGO0HKcF4fwbO6b" name="Решение квадратного уравнения">
    <mxGraphModel dx="2327" dy="956" grid="1" gridSize="10" guides="1" tooltips="1" connect="1" arrows="1" fold="1" page="1" pageScale="1" pageWidth="827" pageHeight="1169" math="0" shadow="0">
      <root>
        <mxCell id="0" />
        <mxCell id="1" parent="0" />
        <mxCell id="uW62fY47EYXRu0wuaZwf-6" style="edgeStyle=orthogonalEdgeStyle;rounded=0;orthogonalLoop=1;jettySize=auto;html=1;entryX=0.5;entryY=0;entryDx=0;entryDy=0;" edge="1" parent="1" source="uW62fY47EYXRu0wuaZwf-1" target="uW62fY47EYXRu0wuaZwf-2">
          <mxGeometry relative="1" as="geometry" />
        </mxCell>
        <mxCell id="uW62fY47EYXRu0wuaZwf-1" value="&lt;p style=&quot;line-height: 1; font-size: 10px;&quot;&gt;Начало&lt;/p&gt;" style="shape=stencil(vZXxboMgEMafhj9dUNwDLG57j6u9KimCQVbt2w9Bs6LVrZvOmJj7PvzdHZyRsKwpoUaSUAkVEvZKksSgrrgEo7QNrFN6OaU+bH0YjzE0NebGixfQHA4CvdMYrc7Y8qMZEFyWqLnpXfZG6Itd098sy5WUFsKVbALnxrcw4NK+SzsPG9Jfg6i2/AptB0ORXiXJ+8+xT8/7gOOd6g2xY/Wb17sdOKw43uvgNgPHv8eyzCpLw82yA+TnQqsPebxbzIkLkSvRf4fUP10ukjA6XOvN1NB/eDNjtCt1wa8uJ8eSrrJHBOh8kTBEeuLqaxgL0AVGFhSdBBTBbjYtYj2Xuwg63kRaGeg3Nci2Xq7g8qbj+H7BD3Q8JaR/6Jn+S88PnbKb3tkQOXVhcu3MKo3fjLT/LaxkXVzgUs8yONX/xpzwCQ==);whiteSpace=wrap;html=1;aspect=fixed;fontFamily=Verdana;fontSize=10;spacingBottom=4;" vertex="1" parent="1">
          <mxGeometry x="344" y="40" width="140" height="40" as="geometry" />
        </mxCell>
        <mxCell id="uW62fY47EYXRu0wuaZwf-7" style="edgeStyle=orthogonalEdgeStyle;rounded=0;orthogonalLoop=1;jettySize=auto;html=1;entryX=0.5;entryY=0;entryDx=0;entryDy=0;" edge="1" parent="1" source="uW62fY47EYXRu0wuaZwf-2" target="uW62fY47EYXRu0wuaZwf-3">
          <mxGeometry relative="1" as="geometry" />
        </mxCell>
        <mxCell id="uW62fY47EYXRu0wuaZwf-2" value="&lt;p style=&quot;line-height: 1; font-size: 10px;&quot;&gt;Ввод коэффициентов&lt;br style=&quot;font-size: 10px;&quot;&gt;a, b, c&lt;/p&gt;" style="shape=stencil(tZRtboQgEIZPw99GYXuAxrb3mMXZShbBAN1tb78jaLvWjzZWjQmZd/CZF0ZgovAVNMh4ZqBGJp4Z5yUEoIG0KgmHLIXXFOZ9DL5BGZJ4AafgqDFlfHD2jFdVhg6hTIVOhTYrXlj2RHPaVxTSGkMQZY0fZO7yBANl6NvsI8G68p+DqCF+jQFdZzKpjL/+HfvwuA8438nvENu739zvduCh43yvxm0GztdjRUHK3M8tiiPI85uz76acNHNSWkurraMwjbEW4yLrnuXFNNAevFGiT9f2gt+rnD5P0+ieoJW5I3zdCP9A/HBxWMFYQ5DaelzYSdJHmxnVmQ5S76zDX1qbrseFqrMTYulRhaimizwKNw==);whiteSpace=wrap;html=1;aspect=fixed;fontFamily=Verdana;fontSize=10;spacingBottom=4;" vertex="1" parent="1">
          <mxGeometry x="344" y="120" width="140" height="40" as="geometry" />
        </mxCell>
        <mxCell id="uW62fY47EYXRu0wuaZwf-8" style="edgeStyle=orthogonalEdgeStyle;rounded=0;orthogonalLoop=1;jettySize=auto;html=1;entryX=0.5;entryY=0;entryDx=0;entryDy=0;" edge="1" parent="1" source="uW62fY47EYXRu0wuaZwf-3" target="uW62fY47EYXRu0wuaZwf-4">
          <mxGeometry relative="1" as="geometry">
            <Array as="points">
              <mxPoint x="676" y="220" />
            </Array>
          </mxGeometry>
        </mxCell>
        <mxCell id="uW62fY47EYXRu0wuaZwf-28" style="edgeStyle=orthogonalEdgeStyle;rounded=0;orthogonalLoop=1;jettySize=auto;html=1;entryX=0.5;entryY=0;entryDx=0;entryDy=0;" edge="1" parent="1" source="uW62fY47EYXRu0wuaZwf-3" target="uW62fY47EYXRu0wuaZwf-26">
          <mxGeometry relative="1" as="geometry" />
        </mxCell>
        <mxCell id="uW62fY47EYXRu0wuaZwf-3" value="&lt;p style=&quot;line-height: 1; font-size: 10px;&quot;&gt;a = 0&lt;/p&gt;" style="shape=stencil(tZTdboQgEIWfhtsGYZu9bmz7HixOK1kEA3S3ffsdAdu1/rQxakx0zuA3B0YgvPS1aIEwakQDhD8TxiqQyitr8BX1OokHmsJrCos+Fr4FGZJ4EU6Jk4aU8cHZM1xVFTJCmRqcCl2WvxD6hGO6m5fSGoMQLOkHmbs8woQy+C39TLBc/msQtchvIIDLJpNK2Ov/sQ+P+4CLnfwOsb37zf1uBx46LvZq3GbgYj2Wl6jM/dy8PAl5fnf2w1STZt6U1tJq6zBMz1iLME7ztTyZVnQbb5To0429wM8sj5P7aRrdE7Qyd4TvEyEj1jB+uTisQKwxIbX1sLCSqI8WM6ozHcTeWQd/tDYdjwtVZwfE0qMKUU2HeRRu);whiteSpace=wrap;html=1;aspect=fixed;fontFamily=Verdana;fontSize=10;spacingBottom=4;rounded=0;shadow=0;sketch=0;spacingLeft=20;spacingRight=20;" vertex="1" parent="1">
          <mxGeometry x="344" y="200" width="140" height="40" as="geometry" />
        </mxCell>
        <mxCell id="uW62fY47EYXRu0wuaZwf-15" style="edgeStyle=orthogonalEdgeStyle;rounded=0;orthogonalLoop=1;jettySize=auto;html=1;exitX=0;exitY=0.5;exitDx=0;exitDy=0;entryX=0.5;entryY=0;entryDx=0;entryDy=0;" edge="1" parent="1" source="uW62fY47EYXRu0wuaZwf-4" target="uW62fY47EYXRu0wuaZwf-14">
          <mxGeometry relative="1" as="geometry" />
        </mxCell>
        <mxCell id="uW62fY47EYXRu0wuaZwf-16" style="edgeStyle=orthogonalEdgeStyle;rounded=0;orthogonalLoop=1;jettySize=auto;html=1;exitX=1;exitY=0.5;exitDx=0;exitDy=0;entryX=0.5;entryY=0;entryDx=0;entryDy=0;" edge="1" parent="1" source="uW62fY47EYXRu0wuaZwf-4" target="uW62fY47EYXRu0wuaZwf-10">
          <mxGeometry relative="1" as="geometry" />
        </mxCell>
        <mxCell id="uW62fY47EYXRu0wuaZwf-4" value="&lt;p style=&quot;line-height: 1; font-size: 10px;&quot;&gt;D &amp;gt; 0&lt;/p&gt;" style="shape=stencil(tZTdboQgEIWfhtsGYZu9bmz7HixOK1kEA3S3ffsdAdu1/rQxakx0zuA3B0YgvPS1aIEwakQDhD8TxiqQyitr8BX1OokHmsJrCos+Fr4FGZJ4EU6Jk4aU8cHZM1xVFTJCmRqcCl2WvxD6hGO6m5fSGoMQLOkHmbs8woQy+C39TLBc/msQtchvIIDLJpNK2Ov/sQ+P+4CLnfwOsb37zf1uBx46LvZq3GbgYj2Wl6jM/dy8PAl5fnf2w1STZt6U1tJq6zBMz1iLME7ztTyZVnQbb5To0429wM8sj5P7aRrdE7Qyd4TvEyEj1jB+uTisQKwxIbX1sLCSqI8WM6ozHcTeWQd/tDYdjwtVZwfE0qMKUU2HeRRu);whiteSpace=wrap;html=1;aspect=fixed;fontFamily=Verdana;fontSize=10;spacingBottom=4;rounded=0;shadow=0;sketch=0;spacingLeft=20;spacingRight=20;" vertex="1" parent="1">
          <mxGeometry x="606" y="240" width="140" height="40" as="geometry" />
        </mxCell>
        <mxCell id="uW62fY47EYXRu0wuaZwf-12" style="edgeStyle=orthogonalEdgeStyle;rounded=0;orthogonalLoop=1;jettySize=auto;html=1;exitX=0;exitY=0.5;exitDx=0;exitDy=0;entryX=0.5;entryY=0;entryDx=0;entryDy=0;" edge="1" parent="1" source="uW62fY47EYXRu0wuaZwf-10" target="uW62fY47EYXRu0wuaZwf-11">
          <mxGeometry relative="1" as="geometry" />
        </mxCell>
        <mxCell id="uW62fY47EYXRu0wuaZwf-18" style="edgeStyle=orthogonalEdgeStyle;rounded=0;orthogonalLoop=1;jettySize=auto;html=1;exitX=1;exitY=0.5;exitDx=0;exitDy=0;entryX=0.5;entryY=0;entryDx=0;entryDy=0;" edge="1" parent="1" source="uW62fY47EYXRu0wuaZwf-10" target="uW62fY47EYXRu0wuaZwf-17">
          <mxGeometry relative="1" as="geometry" />
        </mxCell>
        <mxCell id="uW62fY47EYXRu0wuaZwf-10" value="&lt;p style=&quot;line-height: 1; font-size: 10px;&quot;&gt;D = 0&lt;/p&gt;" style="shape=stencil(tZTdboQgEIWfhtsGYZu9bmz7HixOK1kEA3S3ffsdAdu1/rQxakx0zuA3B0YgvPS1aIEwakQDhD8TxiqQyitr8BX1OokHmsJrCos+Fr4FGZJ4EU6Jk4aU8cHZM1xVFTJCmRqcCl2WvxD6hGO6m5fSGoMQLOkHmbs8woQy+C39TLBc/msQtchvIIDLJpNK2Ov/sQ+P+4CLnfwOsb37zf1uBx46LvZq3GbgYj2Wl6jM/dy8PAl5fnf2w1STZt6U1tJq6zBMz1iLME7ztTyZVnQbb5To0429wM8sj5P7aRrdE7Qyd4TvEyEj1jB+uTisQKwxIbX1sLCSqI8WM6ozHcTeWQd/tDYdjwtVZwfE0qMKUU2HeRRu);whiteSpace=wrap;html=1;aspect=fixed;fontFamily=Verdana;fontSize=10;spacingBottom=4;rounded=0;shadow=0;sketch=0;spacingLeft=20;spacingRight=20;" vertex="1" parent="1">
          <mxGeometry x="776" y="280" width="140" height="40" as="geometry" />
        </mxCell>
        <mxCell id="uW62fY47EYXRu0wuaZwf-21" style="edgeStyle=orthogonalEdgeStyle;rounded=0;orthogonalLoop=1;jettySize=auto;html=1;exitX=0.5;exitY=1;exitDx=0;exitDy=0;endArrow=none;endFill=0;" edge="1" parent="1" source="uW62fY47EYXRu0wuaZwf-11">
          <mxGeometry relative="1" as="geometry">
            <mxPoint x="840" y="400" as="targetPoint" />
            <Array as="points">
              <mxPoint x="676" y="400" />
            </Array>
          </mxGeometry>
        </mxCell>
        <mxCell id="uW62fY47EYXRu0wuaZwf-11" value="&lt;p style=&quot;font-size: 10px;&quot; align=&quot;center&quot; class=&quot;MsoNormal&quot;&gt;x = -b/2a&lt;/p&gt;" style="shape=stencil(tVTRboMwDPyavFYh2T5gYtt/pKlXotIkcrJ1/fuaGKQiBq0mQEjgu3B3Bhyh69SYCEJJb84g9LtQKmKwkBLdEdww9iK5vHBZDbVJEWxm8MegM/sWmEkZwwku7pB7CecbQJc7Vn8I+UZrulPXNnhPIi74NGLueBIzztOz8pfFevvrqIqkf4YM2IdkVKjP52V3r9sIVxvlHcsO6VfPu57wOHG11YdbTbj6v6yuCZn7uXW9N/Z0xPDtD3+G+XJta0MbkEq+Fi+htOyP5Wai6QZvQgw0dmO7PE4PRn/OmPCJd0FnGqZWA8KDN8G7yYLr7IJiPXEoKG99BbgB);whiteSpace=wrap;html=1;aspect=fixed;fontFamily=Verdana;fontSize=10;spacingBottom=4;" vertex="1" parent="1">
          <mxGeometry x="606" y="320" width="140" height="40" as="geometry" />
        </mxCell>
        <mxCell id="uW62fY47EYXRu0wuaZwf-40" style="edgeStyle=orthogonalEdgeStyle;rounded=0;orthogonalLoop=1;jettySize=auto;html=1;" edge="1" parent="1" source="uW62fY47EYXRu0wuaZwf-14" target="uW62fY47EYXRu0wuaZwf-41">
          <mxGeometry relative="1" as="geometry">
            <mxPoint x="680" y="480.0000000000001" as="targetPoint" />
            <Array as="points">
              <mxPoint x="510" y="440" />
              <mxPoint x="681" y="440" />
              <mxPoint x="681" y="480" />
            </Array>
          </mxGeometry>
        </mxCell>
        <mxCell id="uW62fY47EYXRu0wuaZwf-14" value="&lt;p style=&quot;font-size: 10px;&quot; align=&quot;center&quot; class=&quot;MsoNormal&quot;&gt;&lt;span style=&quot;font-size: 10px;&quot;&gt;x&lt;sub style=&quot;font-size: 10px;&quot;&gt;1&amp;nbsp;&lt;/sub&gt;= (-b + D ** 0.5) / 2a&lt;br style=&quot;font-size: 10px;&quot;&gt;&lt;/span&gt;&lt;span style=&quot;background-color: initial; font-size: 10px;&quot;&gt;x&lt;sub style=&quot;font-size: 10px;&quot;&gt;2&lt;/sub&gt; = (-b - D ** 0.5) / 2a&lt;/span&gt;&lt;/p&gt;" style="shape=stencil(tVTRboMwDPyavFYh2T5gYtt/pKlXotIkcrJ1/fuaGKQiBq0mQEjgu3B3Bhyh69SYCEJJb84g9LtQKmKwkBLdEdww9iK5vHBZDbVJEWxm8MegM/sWmEkZwwku7pB7CecbQJc7Vn8I+UZrulPXNnhPIi74NGLueBIzztOz8pfFevvrqIqkf4YM2IdkVKjP52V3r9sIVxvlHcsO6VfPu57wOHG11YdbTbj6v6yuCZn7uXW9N/Z0xPDtD3+G+XJta0MbkEq+Fi+htOyP5Wai6QZvQgw0dmO7PE4PRn/OmPCJd0FnGqZWA8KDN8G7yYLr7IJiPXEoKG99BbgB);whiteSpace=wrap;html=1;aspect=fixed;fontFamily=Verdana;fontSize=10;spacingBottom=4;" vertex="1" parent="1">
          <mxGeometry x="440" y="280" width="140" height="40" as="geometry" />
        </mxCell>
        <mxCell id="uW62fY47EYXRu0wuaZwf-20" style="edgeStyle=orthogonalEdgeStyle;rounded=0;orthogonalLoop=1;jettySize=auto;html=1;endArrow=none;endFill=0;" edge="1" parent="1" source="uW62fY47EYXRu0wuaZwf-17">
          <mxGeometry relative="1" as="geometry">
            <mxPoint x="680" y="440" as="targetPoint" />
            <Array as="points">
              <mxPoint x="1020" y="400" />
              <mxPoint x="841" y="400" />
              <mxPoint x="841" y="440" />
            </Array>
          </mxGeometry>
        </mxCell>
        <mxCell id="uW62fY47EYXRu0wuaZwf-17" value="&lt;p style=&quot;line-height: 1; font-size: 10px;&quot;&gt;Нет вещественных решений&lt;/p&gt;" style="shape=stencil(tVTRboMwDPyavFYh2T5gYtt/pKlXotIkcrJ1/fuaGKQiBq0mQEjgu3B3Bhyh69SYCEJJb84g9LtQKmKwkBLdEdww9iK5vHBZDbVJEWxm8MegM/sWmEkZwwku7pB7CecbQJc7Vn8I+UZrulPXNnhPIi74NGLueBIzztOz8pfFevvrqIqkf4YM2IdkVKjP52V3r9sIVxvlHcsO6VfPu57wOHG11YdbTbj6v6yuCZn7uXW9N/Z0xPDtD3+G+XJta0MbkEq+Fi+htOyP5Wai6QZvQgw0dmO7PE4PRn/OmPCJd0FnGqZWA8KDN8G7yYLr7IJiPXEoKG99BbgB);whiteSpace=wrap;html=1;aspect=fixed;fontFamily=Verdana;fontSize=10;spacingBottom=4;" vertex="1" parent="1">
          <mxGeometry x="950" y="320" width="140" height="40" as="geometry" />
        </mxCell>
        <mxCell id="uW62fY47EYXRu0wuaZwf-29" style="edgeStyle=orthogonalEdgeStyle;rounded=0;orthogonalLoop=1;jettySize=auto;html=1;exitX=1;exitY=0.5;exitDx=0;exitDy=0;entryX=0.5;entryY=0;entryDx=0;entryDy=0;" edge="1" parent="1" source="uW62fY47EYXRu0wuaZwf-26" target="uW62fY47EYXRu0wuaZwf-27">
          <mxGeometry relative="1" as="geometry" />
        </mxCell>
        <mxCell id="uW62fY47EYXRu0wuaZwf-31" style="edgeStyle=orthogonalEdgeStyle;rounded=0;orthogonalLoop=1;jettySize=auto;html=1;exitX=0;exitY=0.5;exitDx=0;exitDy=0;entryX=0.5;entryY=0;entryDx=0;entryDy=0;" edge="1" parent="1" source="uW62fY47EYXRu0wuaZwf-26" target="uW62fY47EYXRu0wuaZwf-30">
          <mxGeometry relative="1" as="geometry" />
        </mxCell>
        <mxCell id="uW62fY47EYXRu0wuaZwf-26" value="&lt;p style=&quot;line-height: 1; font-size: 10px;&quot;&gt;b = 0&lt;/p&gt;" style="shape=stencil(tZTdboQgEIWfhtsGYZu9bmz7HixOK1kEA3S3ffsdAdu1/rQxakx0zuA3B0YgvPS1aIEwakQDhD8TxiqQyitr8BX1OokHmsJrCos+Fr4FGZJ4EU6Jk4aU8cHZM1xVFTJCmRqcCl2WvxD6hGO6m5fSGoMQLOkHmbs8woQy+C39TLBc/msQtchvIIDLJpNK2Ov/sQ+P+4CLnfwOsb37zf1uBx46LvZq3GbgYj2Wl6jM/dy8PAl5fnf2w1STZt6U1tJq6zBMz1iLME7ztTyZVnQbb5To0429wM8sj5P7aRrdE7Qyd4TvEyEj1jB+uTisQKwxIbX1sLCSqI8WM6ozHcTeWQd/tDYdjwtVZwfE0qMKUU2HeRRu);whiteSpace=wrap;html=1;aspect=fixed;fontFamily=Verdana;fontSize=10;spacingBottom=4;rounded=0;shadow=0;sketch=0;spacingLeft=20;spacingRight=20;" vertex="1" parent="1">
          <mxGeometry x="80" y="240" width="140" height="40" as="geometry" />
        </mxCell>
        <mxCell id="uW62fY47EYXRu0wuaZwf-39" style="edgeStyle=orthogonalEdgeStyle;rounded=0;orthogonalLoop=1;jettySize=auto;html=1;endArrow=none;endFill=0;" edge="1" parent="1" source="uW62fY47EYXRu0wuaZwf-27">
          <mxGeometry relative="1" as="geometry">
            <mxPoint x="440" y="480" as="targetPoint" />
            <Array as="points">
              <mxPoint x="320" y="440" />
              <mxPoint x="150" y="440" />
            </Array>
          </mxGeometry>
        </mxCell>
        <mxCell id="uW62fY47EYXRu0wuaZwf-27" value="&lt;p style=&quot;line-height: 1; font-size: 10px;&quot;&gt;x = -c / b&lt;/p&gt;" style="shape=stencil(tVTRboMwDPyavFYh2T5gYtt/pKlXotIkcrJ1/fuaGKQiBq0mQEjgu3B3Bhyh69SYCEJJb84g9LtQKmKwkBLdEdww9iK5vHBZDbVJEWxm8MegM/sWmEkZwwku7pB7CecbQJc7Vn8I+UZrulPXNnhPIi74NGLueBIzztOz8pfFevvrqIqkf4YM2IdkVKjP52V3r9sIVxvlHcsO6VfPu57wOHG11YdbTbj6v6yuCZn7uXW9N/Z0xPDtD3+G+XJta0MbkEq+Fi+htOyP5Wai6QZvQgw0dmO7PE4PRn/OmPCJd0FnGqZWA8KDN8G7yYLr7IJiPXEoKG99BbgB);whiteSpace=wrap;html=1;aspect=fixed;fontFamily=Verdana;fontSize=10;spacingBottom=4;" vertex="1" parent="1">
          <mxGeometry x="250" y="280" width="140" height="40" as="geometry" />
        </mxCell>
        <mxCell id="uW62fY47EYXRu0wuaZwf-33" style="edgeStyle=orthogonalEdgeStyle;rounded=0;orthogonalLoop=1;jettySize=auto;html=1;exitX=1;exitY=0.5;exitDx=0;exitDy=0;entryX=0.5;entryY=0;entryDx=0;entryDy=0;" edge="1" parent="1" source="uW62fY47EYXRu0wuaZwf-30" target="uW62fY47EYXRu0wuaZwf-32">
          <mxGeometry relative="1" as="geometry" />
        </mxCell>
        <mxCell id="uW62fY47EYXRu0wuaZwf-35" style="edgeStyle=orthogonalEdgeStyle;rounded=0;orthogonalLoop=1;jettySize=auto;html=1;entryX=0.5;entryY=0;entryDx=0;entryDy=0;" edge="1" parent="1" source="uW62fY47EYXRu0wuaZwf-30" target="uW62fY47EYXRu0wuaZwf-34">
          <mxGeometry relative="1" as="geometry" />
        </mxCell>
        <mxCell id="uW62fY47EYXRu0wuaZwf-30" value="&lt;p style=&quot;line-height: 1; font-size: 10px;&quot;&gt;c = 0&lt;/p&gt;" style="shape=stencil(tZTdboQgEIWfhtsGYZu9bmz7HixOK1kEA3S3ffsdAdu1/rQxakx0zuA3B0YgvPS1aIEwakQDhD8TxiqQyitr8BX1OokHmsJrCos+Fr4FGZJ4EU6Jk4aU8cHZM1xVFTJCmRqcCl2WvxD6hGO6m5fSGoMQLOkHmbs8woQy+C39TLBc/msQtchvIIDLJpNK2Ov/sQ+P+4CLnfwOsb37zf1uBx46LvZq3GbgYj2Wl6jM/dy8PAl5fnf2w1STZt6U1tJq6zBMz1iLME7ztTyZVnQbb5To0429wM8sj5P7aRrdE7Qyd4TvEyEj1jB+uTisQKwxIbX1sLCSqI8WM6ozHcTeWQd/tDYdjwtVZwfE0qMKUU2HeRRu);whiteSpace=wrap;html=1;aspect=fixed;fontFamily=Verdana;fontSize=10;spacingBottom=4;rounded=0;shadow=0;sketch=0;spacingLeft=20;spacingRight=20;" vertex="1" parent="1">
          <mxGeometry x="-90" y="280" width="140" height="40" as="geometry" />
        </mxCell>
        <mxCell id="uW62fY47EYXRu0wuaZwf-38" style="edgeStyle=orthogonalEdgeStyle;rounded=0;orthogonalLoop=1;jettySize=auto;html=1;endArrow=none;endFill=0;" edge="1" parent="1" source="uW62fY47EYXRu0wuaZwf-32">
          <mxGeometry relative="1" as="geometry">
            <mxPoint x="150" y="440" as="targetPoint" />
            <Array as="points">
              <mxPoint x="150" y="400" />
              <mxPoint x="-19" y="400" />
              <mxPoint x="-19" y="440" />
            </Array>
          </mxGeometry>
        </mxCell>
        <mxCell id="uW62fY47EYXRu0wuaZwf-32" value="&lt;p style=&quot;line-height: 1; font-size: 10px;&quot;&gt;Решений нет&lt;/p&gt;" style="shape=stencil(tVTRboMwDPyavFYh2T5gYtt/pKlXotIkcrJ1/fuaGKQiBq0mQEjgu3B3Bhyh69SYCEJJb84g9LtQKmKwkBLdEdww9iK5vHBZDbVJEWxm8MegM/sWmEkZwwku7pB7CecbQJc7Vn8I+UZrulPXNnhPIi74NGLueBIzztOz8pfFevvrqIqkf4YM2IdkVKjP52V3r9sIVxvlHcsO6VfPu57wOHG11YdbTbj6v6yuCZn7uXW9N/Z0xPDtD3+G+XJta0MbkEq+Fi+htOyP5Wai6QZvQgw0dmO7PE4PRn/OmPCJd0FnGqZWA8KDN8G7yYLr7IJiPXEoKG99BbgB);whiteSpace=wrap;html=1;aspect=fixed;fontFamily=Verdana;fontSize=10;spacingBottom=4;" vertex="1" parent="1">
          <mxGeometry x="80" y="320" width="140" height="40" as="geometry" />
        </mxCell>
        <mxCell id="uW62fY47EYXRu0wuaZwf-37" style="edgeStyle=orthogonalEdgeStyle;rounded=0;orthogonalLoop=1;jettySize=auto;html=1;endArrow=none;endFill=0;" edge="1" parent="1" source="uW62fY47EYXRu0wuaZwf-34">
          <mxGeometry relative="1" as="geometry">
            <mxPoint x="-10" y="400" as="targetPoint" />
            <Array as="points">
              <mxPoint x="-190" y="400" />
            </Array>
          </mxGeometry>
        </mxCell>
        <mxCell id="uW62fY47EYXRu0wuaZwf-34" value="&lt;p style=&quot;line-height: 1; font-size: 10px;&quot;&gt;x - любое число&lt;/p&gt;" style="shape=stencil(tVTRboMwDPyavFYh2T5gYtt/pKlXotIkcrJ1/fuaGKQiBq0mQEjgu3B3Bhyh69SYCEJJb84g9LtQKmKwkBLdEdww9iK5vHBZDbVJEWxm8MegM/sWmEkZwwku7pB7CecbQJc7Vn8I+UZrulPXNnhPIi74NGLueBIzztOz8pfFevvrqIqkf4YM2IdkVKjP52V3r9sIVxvlHcsO6VfPu57wOHG11YdbTbj6v6yuCZn7uXW9N/Z0xPDtD3+G+XJta0MbkEq+Fi+htOyP5Wai6QZvQgw0dmO7PE4PRn/OmPCJd0FnGqZWA8KDN8G7yYLr7IJiPXEoKG99BbgB);whiteSpace=wrap;html=1;aspect=fixed;fontFamily=Verdana;fontSize=10;spacingBottom=4;" vertex="1" parent="1">
          <mxGeometry x="-260" y="320" width="140" height="40" as="geometry" />
        </mxCell>
        <mxCell id="uW62fY47EYXRu0wuaZwf-41" value="&lt;p style=&quot;line-height: 1; font-size: 10px;&quot;&gt;Конец&lt;/p&gt;" style="shape=stencil(vZVhboMwDIVPk59MgbADTGy7h0tdiBoSFLJCb7+QgNZAYesGQwj07PD5mRhBWNaUUCNJqIQKCXslSYLyaK82VHqdUi9bL+NRQ1NjbnzwAprDQaDPNEarM7b8aAYElyVqbvoseyP0xa7pT5blSkoL4Uo2QeYmb2HApX2Wdh42lL8Gqrb8Cg3qwaSPkuT959in533A8U5+Q+zofnO/24FDx/FeG7cZOP49lmU2sjTcLDtAfi60+rBf2j0zJy5EroTSVvq7q0USRodjvZka+g9vlhjTlbrgV5eTbUlX2SMCdL5IGJSeZPU11AJ0gZEFRScBRfA2mxaxnoe7CDreRFoZ6F9qUG3druDypuP4vuEHOp4S0j/0TP+l54d22U3vbIhcdGFy7cwqjd+MtP8trFRdXOBKzyq4qP9/ucAn);whiteSpace=wrap;html=1;aspect=fixed;fontFamily=Verdana;fontSize=10;spacingBottom=4;" vertex="1" parent="1">
          <mxGeometry x="344" y="520.0000000000001" width="140" height="40" as="geometry" />
        </mxCell>
        <mxCell id="uW62fY47EYXRu0wuaZwf-42" value="&amp;nbsp;Нет" style="text;html=1;align=center;verticalAlign=middle;whiteSpace=wrap;rounded=0;" vertex="1" parent="1">
          <mxGeometry x="475" y="200" width="40" height="20" as="geometry" />
        </mxCell>
        <mxCell id="uW62fY47EYXRu0wuaZwf-43" value="&amp;nbsp;Нет" style="text;html=1;align=center;verticalAlign=middle;whiteSpace=wrap;rounded=0;" vertex="1" parent="1">
          <mxGeometry x="736" y="240" width="40" height="20" as="geometry" />
        </mxCell>
        <mxCell id="uW62fY47EYXRu0wuaZwf-44" value="&amp;nbsp;Нет" style="text;html=1;align=center;verticalAlign=middle;whiteSpace=wrap;rounded=0;" vertex="1" parent="1">
          <mxGeometry x="910" y="280" width="40" height="20" as="geometry" />
        </mxCell>
        <mxCell id="uW62fY47EYXRu0wuaZwf-45" value="&amp;nbsp;Нет" style="text;html=1;align=center;verticalAlign=middle;whiteSpace=wrap;rounded=0;" vertex="1" parent="1">
          <mxGeometry x="210" y="240" width="40" height="20" as="geometry" />
        </mxCell>
        <mxCell id="uW62fY47EYXRu0wuaZwf-47" value="&amp;nbsp;Нет" style="text;html=1;align=center;verticalAlign=middle;whiteSpace=wrap;rounded=0;" vertex="1" parent="1">
          <mxGeometry x="40" y="280" width="40" height="20" as="geometry" />
        </mxCell>
      </root>
    </mxGraphModel>
  </diagram>
</mxfile>
